<?xml version="1.0" encoding="utf-8"?>
<!-- Generator: Adobe Illustrator 19.1.0, SVG Export Plug-In . SVG Version: 6.00 Build 0)  -->
<svg version="1.1" xmlns="http://www.w3.org/2000/svg" xmlns:xlink="http://www.w3.org/1999/xlink" x="0px" y="0px"
	 viewBox="0 0 43 26.3" style="enable-background:new 0 0 43 26.3;" xml:space="preserve">
<style type="text/css">
	.st0{fill:#0B1211;}
</style>
<g>
	<path class="st0" d="M11,0h5.2v6.2h6.5v4.9h-6.5v6.8c0,2.2,0.7,3.6,2.4,3.6c1.4,0,2.4-0.6,3.1-1.2l1.6,4c-1.2,1-3.4,2-6,2
		c-4.6,0-6.3-3-6.3-8.2V0z"/>
	<path class="st0" d="M26.8,10.9c0-4,3.2-6.2,7.4-6.2c3.9,0,6.4,1.4,7.7,2.6L40,11C38.8,10,36.7,9,34.5,9C33,9,32,9.9,32,10.8
		c0,3.4,10.9,1.5,10.9,8.7c0,4-3.4,6.5-8.2,6.6c-3.1,0-6.6-0.7-8.6-2.1l2.2-4c2.8,1.2,5.1,1.6,6.6,1.4c1.8-0.2,2.5-1.1,2-2.3
		C35.9,16.1,26.8,18.3,26.8,10.9z"/>
	<rect x="0" y="0" class="st0" width="5.2" height="6.1"/>
	<rect y="10" class="st0" width="5.2" height="15.9"/>
</g>
</svg>
