<svg xmlns="http://www.w3.org/2000/svg" viewBox="0 0 43 26.3"><style>.st0{fill:#0b1211}</style><path class="st0" d="M11 0h5.2v6.2h6.5v4.9h-6.5v6.8c0 2.2.7 3.6 2.4 3.6 1.4 0 2.4-.6 3.1-1.2l1.6 4c-1.2 1-3.4 2-6 2-4.6 0-6.3-3-6.3-8.2V0zm15.8 10.9c0-4 3.2-6.2 7.4-6.2 3.9 0 6.4 1.4 7.7 2.6L40 11c-1.2-1-3.3-2-5.5-2-1.5 0-2.5.9-2.5 1.8 0 3.4 10.9 1.5 10.9 8.7 0 4-3.4 6.5-8.2 6.6-3.1 0-6.6-.7-8.6-2.1l2.2-4c2.8 1.2 5.1 1.6 6.6 1.4 1.8-.2 2.5-1.1 2-2.3-1-3-10.1-.8-10.1-8.2zM0 0h5.2v6.1H0zm0 10h5.2v15.9H0z"/></svg>